<svg xmlns="http://www.w3.org/2000/svg" xmlns:xlink="http://www.w3.org/1999/xlink" id="Ebene_1" x="0px" y="0px" width="245px" height="42.3px" viewBox="59 42.5 245 22.4" enable-background="new 59 42.5 245 42.3" xml:space="preserve" class="undefined svginline replaced-svg">
<g>
	<polygon fill="#1D1D1B" points="106.4,43.8 106.4,51.7 91.8,51.7 91.8,43.8 88.6,43.8 88.6,63.6 91.8,63.6 91.8,54.3 106.4,54.3    106.4,63.6 109.6,63.6 109.6,43.8  "></polygon>
	<path fill="#1D1D1B" d="M123.8,46.5l4.1,8.7h-8.1L123.8,46.5z M122.1,43.8l-9.7,19.7h3.4l2.7-5.8H129l2.7,5.8h3.6l-9.5-19.7H122.1z   "></path>
	<polygon fill="#1D1D1B" points="152,43.8 144.3,60.5 136.6,43.8 133,43.8 142.6,63.6 146,63.6 155.4,43.8  "></polygon>
	<polygon fill="#1D1D1B" points="158.3,43.8 158.3,63.6 175.8,63.6 175.8,61 161.5,61 161.5,54.6 173.4,54.6 173.4,52.1 161.5,52.1    161.5,46.4 175.5,46.4 175.5,43.8  "></polygon>
	<path fill="#1D1D1B" d="M182.7,52.7v-6.3h9c2.6,0,3.8,1.3,3.8,3.2c0,1.4-0.8,3.1-3.9,3.1C191.6,52.7,182.7,52.7,182.7,52.7z    M179.6,63.6h3.2v-8.4h6.8l5.9,8.4h3.8c-0.7-0.8-6.1-8.4-6.1-8.4c1-0.1,1.2-0.2,2.4-0.7c2.6-1.1,3.1-3,3.1-5.4   c0-2.5-1.6-5.3-5.9-5.3h-13.3v19.8H179.6z"></path>
	<polygon fill="#1D1D1B" points="219.1,43.8 207.1,53.8 207.1,43.8 203.9,43.8 203.9,63.6 207.1,63.6 207.1,57.1 211.7,53.3    220.6,63.6 225,63.6 214.1,51.4 223.6,43.8  "></polygon>
	<path fill="#1D1D1B" d="M238,46.5l4.6,9.7h-9.1L238,46.5z M236.3,43.8l-9.7,19.7h3.4l2.3-4.8h11.5l2.3,4.8h3.6L240,43.8   C240,43.8,236.3,43.8,236.3,43.8z"></path>
	<polygon fill="#1D1D1B" points="270.5,43.8 263.7,60.2 256.3,43.8 251.8,43.8 251.8,63.6 255,63.6 255,48 255.1,48 262.3,63.6    265.1,63.6 271.7,47.7 271.8,47.7 271.8,63.6 275,63.6 275,43.8  "></polygon>
	<path fill="#1D1D1B" d="M283.4,53.1v-6.7h9.4c2.4,0,3.6,1.3,3.6,3.2c0,2-1.1,3.6-4.2,3.6L283.4,53.1L283.4,53.1z M280.2,63.6h3.2   v-7.9h9.2c4.5,0,7-2.5,7-6.2s-2.5-5.7-7.2-5.7h-12.2V63.6z"></path>
	<polygon fill="#003869" points="59,42.5 59,64.9 68.5,64.9 68.5,60.5 63.4,60.5 63.4,46.9 76.8,46.9 76.8,60.5 71.7,60.5    71.7,64.9 81.2,64.9 81.2,42.5  "></polygon>
	<path fill="#003869" d="M73.8,57.4h-7.2v-7.3h7.2C73.8,50.1,73.8,57.4,73.8,57.4z M65.8,58.1h8.7v-8.8h-8.7V58.1z"></path>
</g>

</svg>